<?xml version="1.0" encoding="UTF-8" standalone="no"?>
<!DOCTYPE svg PUBLIC "-//W3C//DTD SVG 1.1//EN" "http://www.w3.org/Graphics/SVG/1.1/DTD/svg11.dtd">
<svg width="100%" height="100%" viewBox="0 0 250 250" version="1.1" xmlns="http://www.w3.org/2000/svg" xmlns:xlink="http://www.w3.org/1999/xlink" xml:space="preserve" xmlns:serif="http://www.serif.com/" style="fill-rule:evenodd;clip-rule:evenodd;stroke-linejoin:round;stroke-miterlimit:2;">
    <g transform="matrix(1,0,0,1,-775.348,-1769.46)">
        <g id="two">
        </g>
        <g transform="matrix(0.05,0,0,0.05,775.348,1769.46)">
            <g id="logo">
                <rect id="larger-a" x="0" y="0" width="5000" height="5000" style="fill:white;"/>
                <clipPath id="_clip1">
                    <rect id="larger-a1" serif:id="larger-a" x="0" y="0" width="5000" height="5000"/>
                </clipPath>
                <g clip-path="url(#_clip1)">
                    <g transform="matrix(22.4305,0,0,19.4569,-25280.3,-32008)">
                        <rect x="1127.05" y="1645.07" width="222.911" height="256.978" style="fill:rgb(239,239,239);"/>
                    </g>
                    <g transform="matrix(20,0,0,20,-14557.8,-35881)">
                        <text x="802.867px" y="1975.36px" style="font-family:'Roboto-Bold', 'Roboto';font-weight:700;font-size:140.431px;fill:rgb(56,175,255);">H</text>
                    </g>
                    <g transform="matrix(20,0,0,20,-14712.3,-35163.4)">
                        <path d="M893.512,1938.85C893.478,1938.88 893.423,1938.93 893.39,1938.96C892.808,1939.55 892.813,1940.5 893.401,1941.08C893.974,1941.65 894.891,1941.66 895.477,1941.12C895.51,1941.09 895.563,1941.04 895.596,1941.01C896.179,1940.42 896.175,1939.47 895.588,1938.89C895.015,1938.32 894.098,1938.31 893.512,1938.85Z" style="fill:rgb(239,239,239);"/>
                    </g>
                    <g transform="matrix(20,0,0,20,-14712.3,-35163.4)">
                        <path d="M895.495,1941.31C895.673,1941.06 895.778,1940.76 895.778,1940.43C895.778,1939.78 895.468,1939.44 895.223,1939.24C894.783,1938.87 894.212,1938.77 893.644,1939.01C893.191,1939.2 892.711,1939.74 892.702,1940.42C892.697,1940.78 892.791,1941.19 893.168,1941.56C893.753,1942.15 894.704,1942.15 895.289,1941.56C895.368,1941.48 895.437,1941.4 895.495,1941.31ZM893.214,1941.49C892.945,1941.21 892.778,1940.84 892.778,1940.43C892.778,1940.96 892.978,1941.28 893.214,1941.49ZM895.724,1940.4C895.723,1940.09 895.607,1939.76 895.289,1939.44C895.557,1939.71 895.702,1940.05 895.724,1940.4Z" style="fill:rgb(239,239,239);"/>
                    </g>
                    <g transform="matrix(20,0,0,20,-14712.3,-35163.4)">
                        <path d="M901.316,1930.01C900.984,1930.03 900.594,1930.16 900.26,1930.59C900.199,1930.67 899.968,1931.22 899.91,1931.45C899.835,1931.74 899.721,1932.02 899.658,1932.32C899.591,1932.64 899.511,1932.96 899.43,1933.27C899.342,1933.45 899.258,1933.63 899.201,1933.81C899.117,1934.06 899.072,1934.32 899.069,1934.57C898.085,1935.26 897.231,1936.2 896.356,1937.04C896.006,1936.9 895.558,1936.88 895.032,1937.21C894.938,1937.27 894.746,1937.41 894.566,1937.64C894.464,1937.77 894.355,1937.93 894.277,1938.06C894.179,1938.14 893.888,1938.41 893.763,1938.58C893.673,1938.7 893.595,1938.87 893.533,1939.04C893.5,1939.05 893.467,1939.07 893.435,1939.08C893.236,1939.18 893.027,1939.34 892.858,1939.59C892.724,1939.79 892.58,1940.18 892.586,1940.54C892.597,1941.26 893.076,1941.73 893.434,1941.91C893.826,1942.11 894.264,1942.12 894.644,1941.97C894.817,1941.92 894.975,1941.84 895.115,1941.73C895.262,1941.67 895.413,1941.58 895.555,1941.45C895.574,1941.44 895.592,1941.42 895.611,1941.4C895.75,1941.4 895.901,1941.37 896.064,1941.31C896.174,1941.27 896.395,1941.2 896.648,1940.95C896.823,1940.77 896.808,1940.78 896.964,1940.59C897,1940.55 897.033,1940.5 897.072,1940.46C897.125,1940.4 897.181,1940.34 897.239,1940.29C897.422,1940.12 897.616,1939.96 897.802,1939.8L897.87,1939.74C898.289,1940.39 898.854,1940.49 899.427,1940.38C899.673,1940.33 900.47,1939.68 900.47,1939.68C900.47,1939.68 900.381,1939.78 900.345,1939.81C900.461,1939.71 900.566,1939.61 900.665,1939.51C900.868,1939.43 901.001,1939.37 901.001,1939.37C901.001,1939.37 900.725,1939.61 900.59,1939.68C901.01,1939.47 901.397,1939.09 901.708,1938.75C902.512,1937.86 903.161,1936.66 903.489,1935.51C903.522,1935.4 903.546,1935.29 903.564,1935.19C904.204,1934.17 904.646,1932.99 904.581,1931.8C904.534,1930.94 904.013,1930.67 903.82,1930.57C903.729,1930.51 903.635,1930.47 903.537,1930.43C903.512,1930.39 903.488,1930.36 903.464,1930.32C903.158,1929.9 902.791,1929.77 902.483,1929.72C902.172,1929.67 901.857,1929.7 901.548,1929.87C901.472,1929.9 901.394,1929.95 901.316,1930.01ZM895.577,1939.93L895.601,1939.99L895.603,1939.99L895.598,1939.98L895.577,1939.93ZM895.568,1939.91L895.57,1939.91L895.568,1939.91ZM894.182,1938.91L894.236,1938.89C894.215,1938.9 894.193,1938.9 894.169,1938.91L894.182,1938.91ZM894.203,1938.18C894.186,1938.2 894.171,1938.23 894.161,1938.25L894.203,1938.18Z" style="fill:rgb(239,239,239);"/>
                    </g>
                    <g transform="matrix(20,0,0,20,-14712.3,-35163.4)">
                        <path d="M895.497,1936.71C895.296,1936.85 894.99,1937.06 894.812,1937.24C894.642,1937.41 894.524,1937.59 894.45,1937.74C894.286,1938.07 894.268,1938.63 894.268,1939.01C894.268,1939.84 894.94,1940.51 895.768,1940.51C896.553,1940.51 897.197,1939.9 897.262,1939.14L897.273,1939.13C897.706,1938.84 898.119,1938.14 898.406,1937.7C898.659,1937.32 899.122,1936.86 899.312,1936.44C899.391,1936.26 899.503,1936.04 899.634,1935.9C900.128,1935.34 900.677,1934.8 901.086,1934.18C901.561,1933.46 901.858,1932.62 902.369,1931.93C902.491,1931.77 902.684,1931.65 902.822,1931.51C903.403,1930.91 903.396,1929.97 902.806,1929.38C902.216,1928.8 901.266,1928.81 900.685,1929.4C900.453,1929.64 900.161,1929.87 899.957,1930.15C899.414,1930.88 899.087,1931.76 898.582,1932.53C898.25,1933.03 897.79,1933.45 897.388,1933.91C897.072,1934.27 896.77,1934.78 896.578,1935.2C896.446,1935.5 896.078,1935.78 895.903,1936.05C895.796,1936.21 895.563,1936.6 895.497,1936.71Z" style="fill:rgb(239,239,239);"/>
                    </g>
                    <g transform="matrix(20,0,0,20,-14712.3,-35163.4)">
                        <path d="M886.955,1946.44C889.573,1945.57 891.374,1945.35 893.732,1943.76C895.111,1942.84 896.723,1940.65 897.513,1939.18C900.112,1934.34 903.467,1930.47 903.467,1924.78C903.467,1923.95 902.795,1923.28 901.967,1923.28C901.139,1923.28 900.467,1923.95 900.467,1924.78C900.467,1927.23 899.704,1929.27 898.68,1931.23C897.548,1933.39 896.106,1935.46 894.87,1937.76C894.272,1938.87 893.103,1940.57 892.059,1941.27C889.961,1942.68 888.333,1942.82 886.003,1943.6C885.218,1943.86 884.794,1944.71 885.057,1945.5C885.319,1946.28 886.17,1946.71 886.955,1946.44Z" style="fill:rgb(239,239,239);"/>
                    </g>
                    <g transform="matrix(20,0,0,20,-14712.3,-35163.4)">
                        <path d="M896.64,1936.04C896.272,1936.05 895.946,1936.16 895.706,1936.31C895.254,1936.59 894.919,1937.05 894.919,1937.76C894.919,1938.05 895.002,1938.32 895.146,1938.55C894.819,1938.83 894.613,1939.24 894.616,1939.7C894.623,1940.53 895.3,1941.2 896.128,1941.19C896.521,1941.19 896.954,1941.05 897.339,1940.69C897.695,1940.35 898.075,1939.53 898.204,1939.3C898.399,1938.94 898.611,1938.62 898.792,1938.26C898.816,1938.21 898.849,1938.14 898.872,1938.08C898.949,1937.97 899.04,1937.83 899.069,1937.77C899.159,1937.57 899.191,1937.4 899.203,1937.28C899.287,1936.45 898.869,1936 898.338,1935.76C898.127,1935.66 897.683,1935.46 897.036,1935.78C896.914,1935.84 896.778,1935.92 896.64,1936.04ZM897.908,1937.93L897.905,1937.96L897.907,1937.95L897.908,1937.93ZM897.916,1937.84L897.914,1937.88L897.916,1937.85L897.916,1937.84Z" style="fill:rgb(239,239,239);"/>
                    </g>
                    <g transform="matrix(20,0,0,20,-14712.3,-35163.4)">
                        <path d="M903.03,1928.39C903.03,1927.92 903.19,1927.52 903.245,1927.08C903.398,1925.85 903.483,1924.63 903.582,1923.41C903.658,1922.47 903.946,1921.57 903.946,1920.63C903.946,1919.8 903.274,1919.13 902.446,1919.13C901.618,1919.13 900.946,1919.8 900.946,1920.63C900.946,1921.49 900.661,1922.31 900.592,1923.17C900.497,1924.35 900.416,1925.52 900.268,1926.7C900.197,1927.28 900.03,1927.8 900.03,1928.39C900.03,1929.22 900.702,1929.89 901.53,1929.89C902.358,1929.89 903.03,1929.22 903.03,1928.39Z" style="fill:rgb(239,239,239);"/>
                    </g>
                    <g transform="matrix(20,0,0,20,-14712.3,-35163.4)">
                        <path d="M903.317,1926.95C903.317,1924.99 903.489,1922.98 904.104,1921.12C904.363,1920.33 903.936,1919.48 903.15,1919.22C902.363,1918.96 901.514,1919.39 901.255,1920.17C900.54,1922.34 900.317,1924.67 900.317,1926.95C900.317,1927.78 900.989,1928.45 901.817,1928.45C902.645,1928.45 903.317,1927.78 903.317,1926.95Z" style="fill:rgb(239,239,239);"/>
                    </g>
                    <g transform="matrix(20,0,0,20,-14712.3,-35163.4)">
                        <path d="M903.603,1923.95C903.603,1922.1 903.739,1920.27 903.739,1918.42C903.739,1917.59 903.066,1916.92 902.239,1916.92C901.411,1916.92 900.739,1917.59 900.739,1918.42C900.739,1920.27 900.603,1922.1 900.603,1923.95C900.603,1924.78 901.275,1925.45 902.103,1925.45C902.93,1925.45 903.603,1924.78 903.603,1923.95Z" style="fill:rgb(239,239,239);"/>
                    </g>
                    <g transform="matrix(20,0,0,20,-14712.3,-35163.4)">
                        <path d="M903.728,1923.27C903.728,1922 903.938,1920.73 903.938,1919.44C903.938,1918.62 903.266,1917.94 902.438,1917.94C901.61,1917.94 900.938,1918.62 900.938,1919.44C900.938,1920.73 900.728,1922 900.728,1923.27C900.728,1924.1 901.4,1924.77 902.228,1924.77C903.056,1924.77 903.728,1924.1 903.728,1923.27Z" style="fill:rgb(239,239,239);"/>
                    </g>
                    <g transform="matrix(20,0,0,20,-13341.4,-36355)">
                        <text x="802.867px" y="1975.36px" style="font-family:'Roboto-Bold', 'Roboto';font-weight:700;font-size:140.431px;fill:rgb(255,223,0);">j</text>
                    </g>
                </g>
            </g>
        </g>
        <g id="one">
        </g>
        <g id="swatches">
        </g>
    </g>
</svg>
